<svg width="1607" height="444" viewBox="0 0 1607 444" fill="none" xmlns="http://www.w3.org/2000/svg">
<g clip-path="url(#clip0)">
<path d="M1511.11 73.0117L1483.1 66.3586C1484.19 64.8046 1485.05 63.0786 1485.61 61.2087C1486.17 59.3608 1486.4 57.4854 1486.33 55.6364L1514.34 62.2896C1514.05 64.1107 1513.64 65.9296 1513.09 67.7373C1512.55 69.5356 1511.88 71.2941 1511.11 73.0117ZM1456.13 54.2084C1455.31 56.931 1455.67 59.7578 1457.14 62.1684C1458.61 64.579 1461.01 66.2848 1463.89 66.9716C1469.87 68.3898 1476.1 64.9715 1477.79 59.3514C1478.61 56.6295 1478.26 53.8021 1476.79 51.3918C1475.33 48.9808 1472.93 47.2747 1470.04 46.5878C1464.06 45.1705 1457.83 48.5891 1456.13 54.2084ZM1502.92 107.489C1502.92 107.483 1502.93 107.435 1502.93 107.43C1503.41 105.879 1503.21 104.268 1502.36 102.895C1501.53 101.521 1500.16 100.549 1498.51 100.158L1491.51 98.4946L1491.48 98.4359L1525.15 94.2309C1526.79 94.0249 1528.18 92.9032 1528.63 91.3991L1530.41 85.4781L1475.96 72.5458C1471.71 74.7408 1466.65 75.5091 1461.68 74.3297C1456.7 73.1464 1452.57 70.2094 1450.05 66.0583C1447.52 61.9069 1446.91 57.0396 1448.33 52.3514C1451.24 42.6753 1461.97 36.7894 1472.25 39.2304C1477.07 40.3758 1481.09 43.1674 1483.63 47.1099L1538.06 60.0393L1539.85 54.1183C1540.3 52.6151 1539.74 51.0323 1538.42 50.1196L1500.31 23.7195C1497.22 21.0111 1493.74 18.6999 1489.93 16.8658C1488.84 16.3435 1487.56 16.3179 1486.41 16.7953C1485.51 17.1735 1484.79 17.8346 1484.36 18.6486L1473.33 16.0295C1473.41 15.1343 1473.15 14.2386 1472.58 13.5121C1471.87 12.5931 1470.73 12.042 1469.5 12.0134C1458.82 11.7665 1448.09 14.9485 1439.31 20.9737C1430.38 27.0905 1423.82 35.9162 1420.84 45.8233C1417.34 57.4155 1418.87 69.4533 1425.1 79.7198C1425.1 79.7207 1425.1 79.7203 1425.1 79.721C1429.53 87.0046 1436.06 92.8744 1444 96.6952C1445.08 97.2175 1446.38 97.2428 1447.52 96.7655C1448.42 96.3874 1449.15 95.7259 1449.57 94.9124L1460.6 97.5311C1460.52 98.427 1460.77 99.3217 1461.34 100.05C1462.06 100.968 1463.19 101.519 1464.43 101.548C1468.14 101.633 1471.83 101.299 1475.47 100.584L1478.89 106.73C1478.92 106.771 1478.94 106.811 1478.96 106.85C1479.51 107.759 1480.43 108.359 1481.45 108.589C1481.47 108.597 1481.49 108.607 1481.53 108.614L1495.01 111.815C1496.66 112.207 1498.38 111.971 1499.88 111.151C1501.38 110.331 1502.46 109.024 1502.92 107.489Z" fill="#D96ED4"/>
<path d="M1439.69 50.7876C1352.44 41.8177 1122.17 76.0593 899.138 284.785C620.347 545.692 354.206 435.129 170.291 235.645C23.1602 76.0593 -4.21624 28.3628 0.487036 24.4629" stroke="#D96ED4"/>
</g>
<defs>
<clipPath id="clip0">
<rect width="1607" height="444" fill="white"/>
</clipPath>
</defs>
</svg>
